<svg version="1.1" id="Layer_1" xmlns="http://www.w3.org/2000/svg" xmlns:xlink="http://www.w3.org/1999/xlink" x="0px" y="0px"
	 width="100%" viewBox="0 0 736 208" enable-background="new 0 0 736 208" xml:space="preserve">
<path fill="#000000" opacity="1.000000" stroke="none" 
	d="
M353.074554,113.215355 
	C351.254456,113.219368 349.919250,113.156769 348.592285,113.234718 
	C344.321869,113.485580 342.641998,111.482277 342.676117,107.251740 
	C342.791656,92.939651 342.718658,78.626060 342.722839,64.313049 
	C342.724609,58.321552 342.832550,52.328220 342.714996,46.339203 
	C342.637695,42.398380 344.125763,40.298023 348.282623,40.684464 
	C353.463318,41.166092 358.526917,39.966534 363.651154,39.642601 
	C364.852417,39.566662 365.965668,39.341858 366.857300,38.489410 
	C369.921082,35.560349 372.568817,36.065346 376.128540,38.333515 
	C380.012238,40.808121 384.985382,40.560822 389.581940,40.622681 
	C400.270691,40.766525 400.272064,40.697975 400.270721,51.209126 
	C400.268402,69.516479 400.279541,87.823845 400.255157,106.131172 
	C400.246643,112.525406 399.520233,113.224243 393.007294,113.229980 
	C379.859253,113.241570 366.711243,113.220619 353.074554,113.215355 
M373.498871,103.627998 
	C378.325256,103.622673 383.155060,103.504593 387.976868,103.650597 
	C391.345978,103.752609 392.728882,102.545303 392.700348,99.013802 
	C392.576691,83.703613 392.674774,68.391708 392.646057,53.080521 
	C392.643097,51.502514 393.245728,49.394470 391.201111,48.727581 
	C389.179657,48.068253 386.340973,47.511906 385.136841,49.391838 
	C383.145264,52.501308 380.434143,52.006687 377.700165,52.034168 
	C373.040802,52.080997 368.380463,52.022236 363.720520,52.011765 
	C361.575134,52.006947 359.626282,52.185177 358.259949,49.661373 
	C357.037140,47.402714 354.344879,48.296135 352.307098,48.596344 
	C350.066742,48.926399 350.372620,50.987537 350.370392,52.609509 
	C350.349243,68.087196 350.420166,83.565384 350.309265,99.042313 
	C350.284393,102.514885 351.595398,103.782539 355.025970,103.677834 
	C360.845551,103.500221 366.674408,103.627480 373.498871,103.627998 
M347.631348,84.499748 
	C347.636658,74.178207 347.631714,63.856644 347.650787,53.535130 
	C347.664154,46.297382 347.680115,46.320530 354.705811,45.932480 
	C355.692688,45.877972 357.095428,46.493591 357.539764,44.743778 
	C355.228790,43.855633 352.882965,44.401314 350.596191,44.220116 
	C347.293335,43.958401 346.309143,45.514050 346.324219,48.682648 
	C346.414520,67.660431 346.393127,86.639130 346.303528,105.617020 
	C346.289337,108.619301 347.310669,109.696655 350.386444,109.667625 
	C364.349884,109.535805 378.315552,109.554115 392.279572,109.644981 
	C395.108337,109.663391 396.695740,108.975616 396.687531,105.808716 
	C396.637512,86.497673 396.662384,67.186447 396.662048,47.875282 
	C396.662018,46.091106 396.407745,44.406303 394.133301,44.338699 
	C391.255188,44.253151 388.372650,44.318031 384.674438,44.318031 
	C386.829742,46.521736 388.585541,45.940308 390.097656,45.907349 
	C393.931152,45.823799 395.390350,47.471352 395.358032,51.321075 
	C395.219757,67.801193 395.184479,84.283676 395.322540,100.763527 
	C395.355896,104.747223 393.678955,106.079742 389.988953,106.062294 
	C377.503662,106.003235 365.017212,105.976311 352.532654,106.092361 
	C348.823914,106.126823 347.517303,104.557709 347.627594,100.980446 
	C347.786560,95.825096 347.642426,90.660393 347.631348,84.499748 
z"/>
<path fill="#000000" opacity="1.000000" stroke="none" 
	d="
M314.264709,149.724518 
	C312.877075,147.942657 310.710266,147.149277 310.596313,144.454269 
	C313.221558,143.197540 316.068573,143.896500 318.778076,143.817154 
	C324.103973,143.661209 322.313110,139.691772 322.644043,136.875443 
	C322.998993,133.854767 322.001953,132.276794 318.543182,132.325729 
	C306.529602,132.495789 308.378510,131.235870 308.204224,142.203308 
	C308.146118,145.861420 308.195282,149.521103 308.156189,153.179672 
	C308.133698,155.282608 307.931244,157.265808 305.038635,157.236816 
	C302.460083,157.210968 301.983002,155.422836 302.118988,153.513962 
	C302.574341,147.120728 300.627136,140.557510 303.439209,134.327850 
	C303.635193,133.893661 303.978943,133.244690 303.809418,132.968185 
	C299.717163,126.294525 305.050812,127.190109 308.671082,127.041275 
	C312.821167,126.870667 316.992645,126.876511 321.140747,127.085327 
	C326.621094,127.361191 328.174500,129.080399 328.295929,134.473007 
	C328.340820,136.467850 328.318054,138.464676 328.301422,140.460388 
	C328.246979,146.989151 327.517883,147.868088 320.198914,149.101913 
	C322.013977,150.526169 323.389008,151.446274 324.565430,152.573639 
	C325.706512,153.667145 327.403717,154.455139 327.290924,156.762756 
	C320.512054,159.215424 318.305725,153.039978 314.264709,149.724518 
z"/>
<path fill="#000000" opacity="1.000000" stroke="none" 
	d="
M293.277466,152.589081 
	C292.781006,156.024460 290.904694,157.299515 288.036255,157.310379 
	C283.047852,157.329285 278.059296,157.318802 273.070801,157.315338 
	C269.345093,157.312729 267.638428,155.395081 267.658142,151.719833 
	C267.692047,145.401108 267.715546,139.081482 267.643860,132.763367 
	C267.604095,129.262833 269.384186,127.360199 272.682861,127.229782 
	C277.825317,127.026466 282.988708,127.000099 288.129211,127.222580 
	C291.661346,127.375443 293.415314,129.498703 293.358368,133.171341 
	C293.260345,139.488815 293.315765,145.808670 293.277466,152.589081 
M273.309082,144.403519 
	C273.913666,146.899948 271.699554,150.365784 275.458557,151.763321 
	C283.143494,154.620438 287.676422,151.528091 287.676575,143.628128 
	C287.676636,141.808395 287.484406,139.963928 287.714600,138.173782 
	C288.303986,133.590652 286.473419,132.117722 281.873657,132.266418 
	C273.319366,132.542969 273.311310,132.293442 273.311035,140.973679 
	C273.311005,141.800827 273.310486,142.627975 273.309082,144.403519 
z"/>
<path fill="#000000" opacity="1.000000" stroke="none" 
	d="
M447.090271,157.337341 
	C439.847870,157.243057 439.614349,157.234634 439.864410,150.298096 
	C440.058533,144.913147 438.315735,139.294830 441.380615,134.165619 
	C441.543793,133.892532 441.776764,133.451157 441.669891,133.259628 
	C440.759644,131.628311 438.684113,130.012482 440.636810,128.113770 
	C442.600189,126.204720 445.390503,127.086594 447.829224,127.032051 
	C451.487030,126.950272 455.153259,127.006676 458.808838,127.166214 
	C460.601471,127.244438 462.121826,128.002060 461.912109,130.218765 
	C461.714874,132.303772 460.059021,132.261826 458.554688,132.306580 
	C456.891479,132.356079 455.226074,132.339066 453.561646,132.341553 
	C445.784393,132.353195 445.784393,132.352020 446.550995,140.598694 
	C450.193268,139.427612 453.917236,139.695236 457.628540,139.724136 
	C459.627594,139.739700 462.015442,139.594269 461.902374,142.535782 
	C461.792114,145.404312 459.390747,145.143448 457.413116,145.191010 
	C454.917480,145.251022 452.419250,145.279831 449.923553,145.237579 
	C447.489746,145.196396 446.198425,146.118164 446.264069,148.752243 
	C446.323853,151.153091 447.604950,151.944153 449.751190,151.971436 
	C452.746246,152.009521 455.744690,152.007874 458.734222,152.165192 
	C460.529388,152.259659 462.066315,152.931458 461.878357,155.165268 
	C461.704132,157.235748 460.087402,157.294586 458.562408,157.310059 
	C454.900879,157.347214 451.238800,157.331238 447.090271,157.337341 
z"/>
<path fill="#000000" opacity="1.000000" stroke="none" 
	d="
M469.268311,129.716751 
	C469.670807,127.475395 471.123291,127.094261 472.684082,127.083641 
	C477.675293,127.049698 482.667969,127.043915 487.658112,127.135681 
	C489.413300,127.167961 491.077332,127.695015 490.969574,129.962463 
	C490.855682,132.359177 488.971741,132.251953 487.309845,132.308640 
	C485.647339,132.365356 483.981689,132.334305 482.317413,132.335968 
	C474.763092,132.343491 474.623016,132.512009 475.743835,140.598633 
	C479.415588,139.447037 483.186371,139.658981 486.944580,139.726303 
	C488.783356,139.759232 490.898346,139.676819 490.967194,142.299042 
	C491.044830,145.255859 488.730804,145.125824 486.728851,145.178711 
	C484.233765,145.244659 481.736115,145.248657 479.239990,145.227783 
	C477.032104,145.209305 475.309753,145.554047 475.253387,148.398926 
	C475.193481,151.420044 476.917236,152.024994 479.392456,152.013596 
	C482.054443,152.001312 484.719727,152.005249 487.377899,152.126694 
	C489.092407,152.205032 490.868439,152.564728 490.949707,154.770233 
	C491.036224,157.118301 489.252350,157.316895 487.503204,157.320847 
	C482.510559,157.332123 477.517578,157.277390 472.525177,157.310471 
	C470.222687,157.325714 468.995636,156.162613 469.140808,153.984787 
	C469.576599,147.446854 467.315613,140.664856 470.639648,134.403549 
	C471.792938,132.231216 468.757172,131.809982 469.268311,129.716751 
z"/>
<path fill="#000000" opacity="1.000000" stroke="none" 
	d="
M411.031128,149.257812 
	C410.957245,151.361023 410.955170,153.026978 410.817474,154.681625 
	C410.669128,156.464462 409.646423,157.296112 407.820221,157.245483 
	C406.017975,157.195511 404.936951,156.370544 404.923370,154.562927 
	C404.862305,146.413681 404.849426,138.263962 404.852905,130.114410 
	C404.853638,128.345200 405.796875,127.309433 407.602478,127.246490 
	C409.600006,127.176865 410.821259,128.210495 410.887115,130.182632 
	C410.997314,133.482651 410.917175,136.789001 410.917175,140.920105 
	C414.795532,139.393753 418.208344,139.640869 421.594971,139.734024 
	C424.615204,139.817078 425.845154,138.564453 425.675354,135.583450 
	C425.562195,133.596771 425.691010,131.593948 425.759491,129.600006 
	C425.817200,127.918892 426.911285,127.275574 428.412720,127.284416 
	C429.877258,127.293053 431.151306,127.880157 431.162323,129.533127 
	C431.218872,138.013428 431.215118,146.494446 431.165009,154.974823 
	C431.155334,156.612473 430.007019,157.237915 428.470673,157.229218 
	C426.939941,157.220535 425.909973,156.602707 425.787445,154.953430 
	C425.713562,153.959320 425.793152,152.945480 425.635559,151.967636 
	C425.286743,149.803772 426.889069,146.474335 424.134003,145.739151 
	C420.223511,144.695648 415.928314,144.438171 411.979095,146.143661 
	C411.392029,146.397202 411.341827,147.893951 411.031128,149.257812 
z"/>
<path fill="#000000" opacity="1.000000" stroke="none" 
	d="
M534.770630,127.051636 
	C536.554504,127.186104 537.895203,127.214622 539.188660,127.476372 
	C540.517456,127.745247 541.046082,128.742188 540.968384,130.078339 
	C540.885132,131.511093 540.011475,132.185791 538.706055,132.222565 
	C535.544983,132.311646 532.380066,132.373795 529.218933,132.317963 
	C526.693604,132.273361 525.044678,132.906281 525.047974,135.890015 
	C525.051025,138.668762 526.265198,139.865067 528.989014,139.705032 
	C529.984314,139.646561 530.986511,139.701370 531.985535,139.708023 
	C539.761230,139.759796 541.313904,141.338577 541.236877,149.113251 
	C541.169983,155.870132 539.752075,157.296677 533.025391,157.313507 
	C529.362366,157.322678 525.698975,157.313873 522.036316,157.267288 
	C520.649963,157.249649 519.300171,156.999969 519.100403,155.252777 
	C518.882385,153.346298 520.044739,152.416870 521.710938,152.300613 
	C524.694641,152.092422 527.693115,152.044220 530.685791,152.034607 
	C533.215454,152.026489 534.840088,151.309326 534.764709,148.340805 
	C534.692200,145.482513 532.908569,145.184036 530.728760,145.206909 
	C529.230408,145.222641 527.730835,145.234528 526.233215,145.194351 
	C520.630920,145.044022 518.946899,143.307190 518.800476,137.571762 
	C518.561707,128.220108 519.828430,126.945473 529.311707,127.002441 
	C530.976746,127.012444 532.641724,127.032616 534.770630,127.051636 
z"/>
<path fill="#000000" opacity="1.000000" stroke="none" 
	d="
M205.111633,154.293182 
	C207.303650,151.063416 210.372726,152.329849 213.059082,152.051605 
	C214.874451,151.863541 216.722580,151.993073 218.538452,151.807983 
	C220.436707,151.614471 220.863220,150.177383 220.868362,148.545486 
	C220.873535,146.909775 220.472778,145.519196 218.524200,145.335648 
	C217.366653,145.226624 216.198181,145.211060 215.034119,145.197800 
	C205.872009,145.093628 202.376312,140.144745 205.157455,131.288696 
	C205.891281,128.951874 207.407898,127.475426 209.776810,127.363388 
	C214.423706,127.143646 219.083786,127.119141 223.737091,127.160629 
	C225.518463,127.176514 227.078964,127.871284 226.917648,130.117020 
	C226.769409,132.180939 225.175415,132.300446 223.642471,132.329697 
	C220.646500,132.386887 217.647507,132.444672 214.652954,132.371582 
	C211.980865,132.306366 211.249191,133.684692 211.248138,136.107422 
	C211.247040,138.639893 212.265854,139.816742 214.817215,139.695129 
	C216.145874,139.631790 217.480591,139.686920 218.812439,139.700531 
	C225.626114,139.770111 227.201797,141.393372 227.233139,148.366837 
	C227.269119,156.372849 226.330627,157.335846 218.443298,157.350113 
	C215.279861,157.355835 212.115662,157.380554 208.953217,157.321365 
	C207.137970,157.287399 205.090179,157.455353 205.111633,154.293182 
z"/>
<path fill="#000000" opacity="1.000000" stroke="none" 
	d="
M335.725769,153.797165 
	C336.459320,146.818756 333.915375,140.044312 337.347137,133.772552 
	C337.425995,133.628387 337.584900,133.409760 337.536316,133.331573 
	C336.464386,131.606720 334.325073,129.702866 336.672333,127.880844 
	C338.842682,126.196136 341.823578,127.080811 344.454773,127.019447 
	C347.444702,126.949730 350.440186,126.989685 353.429871,127.086037 
	C355.303467,127.146423 357.247192,127.326584 357.156494,129.974869 
	C357.071594,132.455307 355.160461,132.230194 353.534698,132.303452 
	C351.875336,132.378235 350.210632,132.339294 348.548279,132.343063 
	C340.947296,132.360336 340.503723,132.922409 341.968323,141.133011 
	C345.853119,139.130371 349.990967,139.726120 354.077393,139.769394 
	C355.973480,139.789459 357.311279,140.481903 357.180450,142.713242 
	C357.062531,144.724533 355.687408,145.103653 354.073792,145.131943 
	C350.915924,145.187302 347.757263,145.230164 344.599060,145.224121 
	C342.290527,145.219711 341.341858,146.329620 341.345032,148.610458 
	C341.348236,150.924957 342.413086,151.945023 344.659363,151.974014 
	C347.981964,152.016861 351.307709,152.035553 354.624664,152.207916 
	C356.356781,152.297928 357.320007,153.294357 357.166016,155.179520 
	C357.019592,156.971756 355.775391,157.286011 354.373047,157.292526 
	C349.220154,157.316483 344.067017,157.292862 338.913971,157.282394 
	C336.918793,157.278351 335.815918,156.321823 335.725769,153.797165 
z"/>
<path fill="#000000" opacity="1.000000" stroke="none" 
	d="
M234.943634,130.623077 
	C236.025879,128.106995 237.892517,127.322823 239.944916,127.270493 
	C245.097458,127.139153 250.260071,127.070763 255.408752,127.254478 
	C258.150330,127.352318 260.225800,128.770584 260.246765,131.889175 
	C260.257233,133.446350 260.862427,135.473770 258.636902,136.086609 
	C256.933624,136.555618 255.857086,135.843811 254.556091,134.297897 
	C251.267853,130.390564 246.489975,132.421677 242.487534,132.670059 
	C238.914429,132.891815 240.740662,136.641495 240.349899,138.863525 
	C240.151077,139.994080 240.316849,141.188690 240.317001,142.354340 
	C240.318268,152.547989 241.224792,153.323822 251.442947,151.983765 
	C252.623032,151.828995 253.878357,151.783661 254.409225,150.538025 
	C255.295700,148.458099 256.799927,147.864075 258.829895,148.526062 
	C260.487396,149.066589 260.239441,150.579269 260.297028,151.881027 
	C260.391296,154.010071 259.965454,156.459106 257.782593,156.798080 
	C251.037506,157.845474 244.178055,157.820541 237.433899,156.830383 
	C235.052902,156.480804 234.647812,153.821976 234.668121,151.525177 
	C234.728470,144.700241 234.767929,137.875107 234.943634,130.623077 
z"/>
<path fill="#000000" opacity="1.000000" stroke="none" 
	d="
M395.281708,127.465881 
	C398.294739,130.448639 397.441254,132.038696 393.836670,132.274353 
	C390.854706,132.469284 387.850647,132.395798 384.858246,132.339920 
	C382.320709,132.292526 381.298370,133.436783 381.297821,135.962524 
	C381.297272,138.382004 382.028656,139.829163 384.691986,139.697021 
	C385.355225,139.664108 386.025543,139.751740 386.686890,139.704285 
	C398.276855,138.872925 397.792236,142.617722 397.044220,153.415451 
	C396.877747,155.818146 395.026764,157.212952 392.542053,157.253418 
	C388.052887,157.326523 383.561646,157.312225 379.071747,157.278214 
	C377.533295,157.266556 376.007477,157.100128 375.868866,155.005035 
	C375.713470,152.656616 377.340179,152.227203 379.078033,152.143387 
	C381.900146,152.007324 384.730713,151.999786 387.557251,152.015656 
	C390.052521,152.029648 391.714203,151.391449 391.663574,148.381989 
	C391.615723,145.539886 389.951263,145.123154 387.723267,145.192581 
	C387.391022,145.202942 387.057098,145.173767 386.725494,145.191513 
	C374.215118,145.860992 375.487671,142.874832 375.782532,131.537964 
	C375.872009,128.096832 378.613831,127.207123 381.414307,127.141045 
	C385.893860,127.035355 390.380890,127.245598 395.281708,127.465881 
z"/>
<path fill="#000000" opacity="1.000000" stroke="none" 
	d="
M508.177429,133.259842 
	C506.714325,139.986160 507.653839,146.470367 507.321899,152.916992 
	C507.223267,154.831848 507.699738,157.188339 504.609680,157.212494 
	C501.620697,157.235855 501.737335,155.018387 501.720581,153.013489 
	C501.676147,147.697327 501.564789,142.376587 501.733002,137.065674 
	C501.837097,133.778290 500.924774,131.986145 497.275726,132.291794 
	C495.491028,132.441299 493.257782,132.542587 493.252808,129.861557 
	C493.247498,126.996796 495.575684,127.046120 497.579437,127.026222 
	C502.396912,126.978378 507.215912,126.964806 512.032776,127.037712 
	C513.836853,127.065010 515.953003,127.033821 516.104065,129.611465 
	C516.262024,132.306976 514.225281,132.222565 512.345642,132.351089 
	C511.044312,132.440063 509.757904,132.746780 508.177429,133.259842 
z"/>
<path fill="#000000" opacity="1.000000" stroke="none" 
	d="
M360.307861,86.969566 
	C364.443207,87.514053 368.538513,85.675583 372.031860,88.634125 
	C364.008514,95.667175 359.443207,96.926392 354.518066,93.493805 
	C356.228729,89.946411 360.005127,92.886894 362.332855,91.025940 
	C360.002838,89.471062 356.985413,91.488144 354.734253,89.290298 
	C355.425110,86.272758 357.976929,87.310471 360.307861,86.969566 
z"/>
<path fill="#000000" opacity="1.000000" stroke="none" 
	d="
M363.978577,76.173393 
	C360.578125,75.633133 357.051025,77.521370 353.757843,73.201317 
	C360.417023,72.369232 366.001892,72.509872 372.511322,73.166519 
	C370.000336,77.331322 366.933167,75.794418 363.978577,76.173393 
z"/>
<path fill="#000000" opacity="1.000000" stroke="none" 
	d="
M366.727325,57.847504 
	C368.839264,58.088390 370.985992,57.333645 371.733246,60.804863 
	C366.009338,61.757565 360.481903,61.257351 354.852203,60.313980 
	C358.056000,56.551273 362.435547,58.409760 366.727325,57.847504 
z"/>
<path fill="#000000" opacity="1.000000" stroke="none" 
	d="
M378.983490,90.517014 
	C382.533417,91.003006 384.822723,88.708504 387.331543,87.101845 
	C388.513031,89.726715 386.372650,94.202713 383.370972,94.894135 
	C380.377258,95.583725 378.912262,93.736496 378.983490,90.517014 
z"/>
<path fill="#000000" opacity="1.000000" stroke="none" 
	d="
M387.807678,58.232628 
	C389.167297,62.918819 385.419647,64.515144 382.620453,65.659241 
	C380.749207,66.424057 379.071136,64.012047 378.954651,60.924900 
	C382.819641,62.429264 384.667023,59.077374 387.807678,58.232628 
z"/>
<path fill="#000000" opacity="1.000000" stroke="none" 
	d="
M380.283783,75.162247 
	C382.678436,76.232307 384.027069,74.943817 385.455536,73.751930 
	C386.417938,72.948891 387.885437,72.409477 388.360229,73.858818 
	C389.250671,76.577263 386.291718,77.251076 385.047577,78.819588 
	C384.015991,80.120171 382.530884,81.450882 380.896606,79.702019 
	C379.783173,78.510513 376.882935,77.356155 380.283783,75.162247 
z"/>
<path fill="#000000" opacity="1.000000" stroke="none" 
	d="
M354.768372,78.970078 
	C358.466614,75.576950 362.165009,76.610481 365.860626,78.790306 
	C362.251892,80.656998 358.601746,80.982384 354.768372,78.970078 
z"/>
<path fill="#000000" opacity="1.000000" stroke="none" 
	d="
M361.867157,66.077950 
	C359.149719,65.732002 356.455444,66.981964 354.245453,63.754280 
	C358.315948,62.012360 362.007141,62.578182 365.810333,63.282101 
	C365.774048,66.346077 363.786133,65.829514 361.867157,66.077950 
z"/>
</svg>